<svg xmlns="http://www.w3.org/2000/svg" viewBox="0 0 333.61624 333.61874" height="333.61874" width="333.61624">
  <defs>
    <clipPath id="a">
      <path d="M0 500h1024V0H0v500z"/>
    </clipPath>
  </defs>
  <g clip-path="url(#a)" transform="matrix(1.25 0 0 -1.25 -154.44 484.31)">
    <path d="M375.7163 120.5527c8.134 0 14.73 6.596 14.73 14.73v237.434c0 8.137-6.596 14.731-14.73 14.731h-237.433c-8.137 0-14.73-6.594-14.73-14.731v-237.434c0-8.134 6.593-14.73 14.73-14.73h237.433z" fill="#3b5998"/>
    <path d="M307.7046 120.5527v103.355h34.693l5.194 40.28h-39.887v25.717c0 11.662 3.238 19.609 19.962 19.609l21.33.01v36.026c-3.69.49-16.351 1.587-31.081 1.587-30.753 0-51.806-18.771-51.806-53.244v-29.705h-34.781v-40.28h34.781v-103.355h41.595z" fill="#fff"/>
  </g>
</svg>
