<svg xmlns="http://www.w3.org/2000/svg" width="35.758129" height="35.758129">
  <path d="M7.4425021 17.55069c0 1.86625-1.5125 3.3775-3.37875 3.3775-1.865 0-3.37625-1.51125-3.37625-3.3775s1.51125-3.37875 3.37625-3.37875c1.86625 0 3.37875 1.5125 3.37875 3.37875" fill="#fff"/>
  <path d="M7.4425021 17.55069c0 1.86625-1.5125 3.3775-3.37875 3.3775-1.865 0-3.37625-1.51125-3.37625-3.3775s1.51125-3.37875 3.37625-3.37875c1.86625 0 3.37875 1.5125 3.37875 3.37875z" fill="none" stroke="#000" stroke-width="1.3750000249999998"/>
  <path d="M35.070627 17.55069c0 1.86625-1.5125 3.3775-3.37875 3.3775-1.865 0-3.37625-1.51125-3.37625-3.3775s1.51125-3.37875 3.37625-3.37875c1.86625 0 3.37875 1.5125 3.37875 3.37875" fill="#fff"/>
  <path d="M35.070627 17.55069c0 1.86625-1.5125 3.3775-3.37875 3.3775-1.865 0-3.37625-1.51125-3.37625-3.3775s1.51125-3.37875 3.37625-3.37875c1.86625 0 3.37875 1.5125 3.37875 3.37875z" fill="none" stroke="#000" stroke-width="1.3750000249999998"/>
  <path d="M27.242252 5.6958146l-6.755-1.59-2.4825 7.8475" fill="none" stroke="#000" stroke-width="1.3750000249999998" stroke-linecap="round" stroke-linejoin="round"/>
  <path d="M32.661627 6.2420646c0 1.47-1.1925 2.6625-2.66125 2.6625-1.4725 0-2.66375-1.1925-2.66375-2.6625 0-1.47125 1.19125-2.6625 2.66375-2.6625 1.46875 0 2.66125 1.19125 2.66125 2.6625" fill="#fff"/>
  <path d="M32.661627 6.2420646c0 1.47-1.1925 2.6625-2.66125 2.6625-1.4725 0-2.66375-1.1925-2.66375-2.6625 0-1.47125 1.19125-2.6625 2.66375-2.6625 1.46875 0 2.66125 1.19125 2.66125 2.6625z" fill="none" stroke="#000" stroke-width="1.3750000249999998"/>
  <path d="M33.103502 22.196065c0 5.51375-6.84875 9.9825-15.29875 9.9825-8.44875 0-15.2975-4.46875-15.2975-9.9825s6.84875-9.98375 15.2975-9.98375c8.45 0 15.29875 4.47 15.29875 9.98375" fill="#fff"/>
  <path d="M33.103502 22.196065c0 5.51375-6.84875 9.9825-15.29875 9.9825-8.44875 0-15.2975-4.46875-15.2975-9.9825s6.84875-9.98375 15.2975-9.98375c8.45 0 15.29875 4.47 15.29875 9.98375z" fill="none" stroke="#000" stroke-width="1.3750000249999998"/>
  <path d="M14.282002 20.24719c0 .9875-.80125 1.7875-1.7875 1.7875-.98875 0-1.78875-.8-1.78875-1.7875 0-.98875.8-1.78875 1.78875-1.78875.98625 0 1.7875.8 1.7875 1.78875" fill="#ff4500"/>
  <path d="M14.282002 20.24719c0 .9875-.80125 1.7875-1.7875 1.7875-.98875 0-1.78875-.8-1.78875-1.7875 0-.98875.8-1.78875 1.78875-1.78875.98625 0 1.7875.8 1.7875 1.78875z" fill="none" stroke="#ff4500" stroke-width="1.3750000249999998"/>
  <path d="M25.060252 20.24719c0 .9875-.8 1.7875-1.7875 1.7875-.98625 0-1.7875-.8-1.7875-1.7875 0-.98875.80125-1.78875 1.7875-1.78875.9875 0 1.7875.8 1.7875 1.78875" fill="#ff4500"/>
  <path d="M25.060252 20.24719c0 .9875-.8 1.7875-1.7875 1.7875-.98625 0-1.7875-.8-1.7875-1.7875 0-.98875.80125-1.78875 1.7875-1.78875.9875 0 1.7875.8 1.7875 1.78875z" fill="none" stroke="#ff4500" stroke-width="1.3750000249999998"/>
  <path d="M12.594502 26.791315c1.3325 1.3325 3.4825 1.58875 5.265 1.58875M23.163252 26.791315c-1.33375 1.3325-3.48125 1.58875-5.265 1.58875" fill="none" stroke="#000" stroke-width="1.3750000249999998" stroke-linecap="round"/>
</svg>
