<svg xmlns="http://www.w3.org/2000/svg" height="78.618279" width="78.618279">
  <defs>
    <filter id="a">
      <feGaussianBlur stdDeviation="1.4779358"/>
    </filter>
  </defs>
  <g transform="matrix(.81695 0 0 .81695 -80.208 -136.85)" opacity=".43362834" fill="#221713" filter="url(#a)">
    <path d="M130.1 209.53253q1.6 0 3.7.3t3.9 1.1q1.8.7 3 2.1 1.3 1.3 1.3 3.5 0 1.3-1.2 2.4-1.2 1.1-2.4 1.1-.4.2-1.3.2-1.6 0-2.8-1.1-1.2-1.2-1.2-2.9 0-1.5 1.2-3l-.5-1.2q-1.2-.6-2.7-.6-1.6 0-3.3.4-1.6.3-3 1.1t-2.3 2.1q-.9 1.3-.9 3.2 0 1.8 1.2 2.9 1.3 1 3.2 1.8 2 .8 4.2 1.5t4.1 1.8q2 1.1 3.2 2.9 1.3 1.7 1.3 4.5 0 3.7-1.6 6.7-1.5 2.9-4.1 4.9-2.6 2-5.9 3.1-3.3 1.1-6.8 1.1-2.4 0-4.9-.5-2.5-.4-4.6-1.5-2.1-1.2-3.4-3.1-1.3-2-1.3-5 0-2.2.7-3.6.7-1.5 1.8-2.5 1.2-1 2.7-1.7 1.5-.8 3.1-1.6.5 0 1-.2.5-.3 1-.3l.2 1q-.9.9-1.9 1.7-.9.8-1.8 1.7-.8.9-1.4 2-.5 1-.5 2.5t.3 3.1q.4 1.6 1.1 2.9.8 1.3 2.1 2.2 1.3.8 3.2.8 1 0 2-.1t2-.1q1.9-.8 3.6-1.5 1.8-.8 3.1-1.8 1.4-1.1 2.2-2.6.9-1.6.9-4.1 0-2.2-1.3-3.3-1.2-1.1-3.1-1.7-1.9-.7-4.1-1.2-2.2-.6-4.1-1.6-1.9-1.1-3.2-3.1-1.2-2-1.2-5.5 0-2.5 1.6-4.5 1.7-2.1 4-3.6 2.4-1.5 5.1-2.3 2.7-.8 4.8-.8zM164.99531 181.83253q5.2 0 9.2 2.9 4 2.8 6.7 7.1 2.7 4.2 4.1 9.3 1.4 5 1.4 9.4 0 3.8-.9 8.1-.8 4.3-2.5 8.6-1.6 4.3-4 8.3-2.4 3.9-5.5 7t-6.9 4.9q-3.8 1.8-8.2 1.8-7.5 0-11.1-4.1-3.6-4.2-3.6-11.4 0-4.9 2.1-9.1 2.1-4.2 5.5-7.3 3.4-3.1 7.8-4.9 4.4-1.8 9.1-1.8 2.9 0 5.3 1.1 2.5 1.1 4.2 3.5l.3-.2q.2-.5.4-1.8.2-1.4.3-2.9.2-1.5.3-2.9.1-1.4.1-2.1 0-3.6-1-7.4-.9-3.9-2.9-7.1-2-3.2-5.1-5.2-3.1-2.1-7.3-2.1-2.9 0-5 1.1t-3.5 3q-1.4 1.8-2.1 4.2-.6 2.4-.6 5 0 2.8.7 5.7.7 2.8 2.5 5l.1 1.2q-1.1.2-2.3-1.3-1.2-1.6-2.3-3.7-1-2.2-1.7-4.3-.6-2.2-.6-3.1 0-3.8 1.3-6.5 1.4-2.8 3.7-4.5 2.3-1.8 5.4-2.6 3.1-.9 6.6-.9zm-13.2 56.3q0 2.3 1 4.7 1.1 2.3 3.4 3.3 1 1 2.7 1 2.3 0 4.4-1.3 2.1-1.4 3.9-3.6 1.8-2.3 3.2-5 1.5-2.8 2.5-5.6 1.1-2.9 1.7-5.5.6-2.6.6-4.5 0-3.4-2.1-6.1-2-2.7-5.6-2.7-3.8 0-6.8 2.8-2.9 2.8-4.9 6.8-2 4-3 8.3-1 4.3-1 7.4z"/>
  </g>
  <g fill="#221713">
    <path d="M25.37666918 33.32607124q1.3071133 0 3.02269954.24508374 1.71558622.24508375 3.1860887.8986404 1.47050247.57186208 2.45083745 1.71558623 1.06202957 1.06202957 1.06202957 2.85931038 0 1.06202956-.98033498 1.96066997-.980335.8986404-1.96066997.8986404-.32677834.16338916-1.06202958.16338916-1.3071133 0-2.2874483-.8986404-.98033498-.98033497-.98033498-2.36914287 0-1.22541873.980335-2.45083746l-.40847292-.98033498q-.980335-.4901675-2.20575372-.4901675-1.3071133 0-2.6959212.32677832-1.30711332.24508375-2.45083746.8986404-1.14372415.65355666-1.8789754 1.71558623-.73525123 1.06202956-.73525123 2.61422662 0 1.47050248.980335 2.36914288 1.06202956.81694582 2.61422662 1.47050248 1.63389164.65355665 3.43117244 1.22541873 1.7972808.57186207 3.34947787 1.47050247 1.63389164.8986404 2.61422662 2.36914288 1.06202957 1.3888079 1.06202957 3.6762562 0 3.02269953-1.30711332 5.473537-1.22541873 2.36914287-3.34947786 4.0030345-2.12405913 1.63389165-4.81998034 2.53253205-2.6959212.8986404-5.55523157.8986404-1.96066997 0-4.00303452-.4084729-2.04236454-.32677833-3.75795076-1.22541873-1.71558622-.980335-2.7776158-2.53253205-1.06202956-1.63389164-1.06202956-4.0847291 0-1.7972808.57186208-2.94100495.57186207-1.22541873 1.47050247-2.04236455.980335-.81694582 2.20575372-1.3888079 1.22541873-.65355665 2.53253204-1.3071133.4084729 0 .8169458-.16338917.40847292-.24508374.81694583-.24508374l.16338916.81694582q-.73525124.73525123-1.55219706 1.3888079-.73525124.65355665-1.47050248 1.38880788-.65355666.73525124-1.14372415 1.63389164-.4084729.81694582-.4084729 2.04236455t.24508375 2.53253205q.32677833 1.3071133.8986404 2.36914287.65355666 1.06202957 1.71558622 1.7972808 1.06202957.65355666 2.61422663.65355666.81694582 0 1.63389164-.08169458t1.63389164-.08169458q1.55219705-.65355666 2.94100495-1.22541873 1.47050247-.65355666 2.53253204-1.47050248 1.14372415-.8986404 1.7972808-2.12405913.73525124-1.3071133.73525124-3.34947786 0-1.7972808-1.06202955-2.6959212-.980335-.8986404-2.53253205-1.3888079-1.55219705-.57186207-3.34947786-.98033498-1.7972808-.4901675-3.34947786-1.30711333-1.55219706-.8986404-2.61422662-2.53253204-.980335-1.63389164-.980335-4.493202 0-2.04236456 1.30711332-3.6762562 1.3888079-1.71558622 3.26778328-2.94100495 1.96066997-1.22541873 4.1664237-1.8789754 2.2057537-.65355664 3.92133992-.65355664zM53.88424682 10.69667202q4.24811827 0 7.51590155 2.36914288 3.26778328 2.2874483 5.473537 5.80031532 2.2057537 3.43117245 3.34947785 7.59759613 1.14372415 4.0847291 1.14372415 7.6792907 0 3.10439412-.73525124 6.61726115-.65355665 3.51286703-2.04236455 7.02573405-1.3071133 3.51286703-3.26778328 6.7806503-1.96066996 3.1860887-4.493202 5.71862075-2.53253205 2.53253204-5.63692616 4.00303452-3.10439412 1.47050247-6.69895573 1.47050247-6.12709364 0-9.0680986-3.34947787-2.94100494-3.43117244-2.94100494-9.31318235 0-4.00303452 1.71558622-7.43420696t4.493202-5.9637045q2.7776158-2.53253203 6.3721774-4.0030345 3.5945616-1.47050248 7.43420697-1.47050248 2.36914288 0 4.32981284.8986404 2.04236454.8986404 3.43117244 2.85931037l.24508374-.16338915q.16338917-.4084729.32677833-1.47050248.16338918-1.14372415.24508376-2.36914288.16338916-1.22541874.24508374-2.36914288.0816946-1.14372415.0816946-1.71558623 0-2.94100496-.81694583-6.04539907-.73525124-3.1860887-2.36914288-5.80031533-1.63389165-2.61422662-4.1664237-4.24811826-2.53253204-1.71558622-5.96370448-1.71558622-2.36914288 0-4.0847291.8986404-1.71558622.8986404-2.85931037 2.45083746-1.14372415 1.47050248-1.71558622 3.43117244-.4901675 1.96066997-.4901675 4.0847291 0 2.2874483.57186208 4.65659118.57186208 2.2874483 2.04236456 4.0847291l.08169458.98033498q-.8986404.16338917-1.87897538-1.06202956-.980335-1.30711332-1.8789754-3.02269954-.8169458-1.7972808-1.38880788-3.51286702-.4901675-1.7972808-.4901675-2.53253205 0-3.1043941 1.06202957-5.31014782 1.14372415-2.2874483 3.02269953-3.6762562 1.8789754-1.47050246 4.41150743-2.12405912 2.53253205-.73525124 5.39184242-.73525124zM43.100562 56.6907217q0 1.87897538.81694582 3.83964534.8986404 1.8789754 2.7776158 2.6959212.8169458.81694583 2.2057537.81694583 1.8789754 0 3.5945616-1.06202957 1.71558623-1.14372414 3.1860887-2.94100495 1.47050248-1.87897538 2.61422663-4.0847291 1.22541873-2.2874483 2.04236455-4.5748966.8986404-2.36914287 1.3888079-4.493202t.4901675-3.6762562q0-2.77761578-1.71558623-4.9833695-1.63389164-2.2057537-4.5748966-2.2057537-3.1043941 0-5.55523157 2.2874483-2.36914288 2.2874483-4.00303452 5.55523157-1.63389164 3.26778328-2.45083746 6.7806503-.81694582 3.51286703-.81694582 6.04539907z"/>
  </g>
</svg>
