<svg xmlns="http://www.w3.org/2000/svg" viewBox="0 0 333.61624 333.61874" height="333.61874" width="333.61624">
  <path d="M315.203745 333.618745c10.1675 0 18.4125-8.245 18.4125-18.4125v-296.7925c0-10.17125-8.245-18.41375-18.4125-18.41375H18.412495c-10.17125 0-18.4125 8.2425-18.4125 18.41375v296.7925c0 10.1675 8.24125 18.4125 18.4125 18.4125h296.79125z" fill="#54abed"/>
  <path d="M119.320145 259.4961575c-22.6371375-.8804125-44.14545-7.2734875-63.4732125-18.86665-1.4603375-.875925-2.65515-1.6822375-2.65515-1.7917625 0-.1301125.7821875-.1411625 2.2543625-.032 4.14625.3074875 15.357325.1871125 18.5860875-.1995625 8.6876875-1.0404 16.9471-3.1071 24.6478375-6.1675125 3.0664625-1.2186625 9.1352625-4.1638625 12.1235375-5.8835375 3.9954375-2.2993 10.723675-6.983675 10.43925-7.2680875-.0635-.063375-1.0855625-.1909875-2.2714375-.2835375-16.5989875-1.2951-31.3467125-11.4429625-38.54235-26.5208125-1.2752375-2.6721625-2.3145875-5.4515875-2.1136875-5.652475.071875-.071875.91865-.017 1.881525.12225 2.648075.3828875 8.65295.50845 11.2939.236175 2.8830625-.2972625 6.636175-1.047025 6.7326125-1.344975.041125-.1272875-.259925-.28845-.6868625-.36775-1.8055875-.3353875-6.9822-2.224525-9.5724125-3.49335-4.6305125-2.268275-8.3196875-4.8686125-12.10155-8.5298125-7.4176-7.1809125-12.275525-16.717475-13.7331375-26.9593625-.4339125-3.0489-.623225-6.7266125-.3547875-6.8925125.119625-.074125.875125.1966875 1.67875.6014625 4.5643375 2.2990875 9.7605375 3.8593125 15.248125 4.578425 2.6992625.353725 3.6087375.387325 3.5132375.1297125-.036875-.099125-.9234625-.8390125-1.9704875-1.644325-8.288025-6.374625-14.334175-15.6777375-16.8440625-25.917725-.9792125-3.9950875-1.2701625-6.562625-1.2729375-11.2334875-.0025-6.1614625.789-10.7343375 2.8136375-16.2315.7457625-2.0248625 3.0950125-6.87645 3.3833-6.987075.1348375-.05175 1.1031.91305 2.1517 2.143975 17.1919 20.1813 40.6637 35.0710125 66.203075 41.9969875 8.43035 2.2862125 19.496025 4.1169125 25.8249625 4.2724625 2.5565125.06275 2.3566375.3511625 1.8376-2.6510875-1.6511875-9.5511-.1853-19.5264125 4.1668375-28.3550375 2.4438-4.9574125 5.1701625-8.79135 8.913825-12.5350125 3.7436625-3.743675 7.5776375-6.47005 12.5350375-8.9138375 10.145725-5.001425 21.38305-6.1363125 32.51125-3.283425 4.6362625 1.18855 9.590975 3.3992375 13.7785875 6.1476625 2.794875 1.834325 4.336025 3.06825 6.75535 5.4087625 1.6401375 1.5866625 1.7854375 1.68075 2.4046125 1.556475 8.672375-1.7404 18.519-5.35815 26.2483375-9.6438375 1.3135-.7283 2.44415-1.2681875 2.512675-1.19975.3778375.3778625-1.9438875 5.754025-3.937025 9.1165375-3.5079125 5.9179125-8.6312875 11.377275-14.0724625 14.9954375-.7564875.5030625-1.3755125 1.00005-1.3755125 1.1044375 0 .2266 1.1041875.09475 4.8093375-.574075 6.905225-1.24655 12.77185-3.020925 20.5899625-6.2275.5500875-.2256125.1796.5028-1.28525 2.52705-5.54875 7.667475-14.139925 16.3370125-20.9604625 21.151525-.322775.227875-.359775.833925-.429925 7.0419-.04575 4.085175-.2071375 8.190375-.4038875 10.2994125-3.7044375 39.6995125-24.2952875 76.180575-55.6393 98.576925-18.3437 13.107225-40.2331125 21.04655-63.807825 23.1433-5.940175.5283125-12.802375.7155875-18.3355875.5004z" fill="#fff"/>
</svg>
